<?xml version="1.0" encoding="utf-8"?>
<!-- Generator: Adobe Illustrator 23.1.0, SVG Export Plug-In . SVG Version: 6.00 Build 0)  -->
<svg version="1.1" id="Capa_1" xmlns="http://www.w3.org/2000/svg" xmlns:xlink="http://www.w3.org/1999/xlink" x="0px" y="0px"
	 viewBox="0 0 508 508" style="enable-background:new 0 0 508 508;" xml:space="preserve">
<style type="text/css">
	.st0{fill:#B66629;enable-background:new    ;}
	.st1{fill:#E4E4E4;}
	.st2{fill:#1F3252;enable-background:new    ;}
	.st3{fill:#FFFFFF;enable-background:new    ;}
</style>
<circle class="st0" cx="253.6" cy="201.7" r="201.7"/>
<g>
	<path class="st1" d="M90.2,319.7L20.8,440l81-4.3l36.8,72.3l64.2-111.3C156.8,384.8,117.3,357.1,90.2,319.7z"/>
	<path class="st1" d="M417.4,319.1c-26.9,37.5-66.4,65.3-112.3,77.4L369.4,508l36.8-72.3l81,4.3L417.4,319.1z"/>
</g>
<circle class="st2" cx="253.6" cy="201.7" r="146.2"/>
<path class="st3" d="M353.8,185.9c4.5-4.4,2-12.1-4.2-13l-57.7-8.4c-2.5-0.4-4.6-1.9-5.7-4.2L260.3,108c-2.8-5.7-10.9-5.7-13.7,0
	l-25.7,52.3c-1.1,2.2-3.3,3.8-5.7,4.2l-57.7,8.4c-6.2,0.9-8.7,8.6-4.2,13l41.7,40.7c1.8,1.8,2.6,4.3,2.2,6.7l-9.8,57.4
	c-1.1,6.2,5.5,11,11.1,8l51.6-27.1c2.2-1.2,4.9-1.2,7.1,0l51.6,27.1c5.6,2.9,12.1-1.8,11.1-8l-9.9-57.4c-0.4-2.5,0.4-5,2.2-6.7
	L353.8,185.9z"/>
</svg>
