<?xml version="1.0" encoding="utf-8"?>
<!-- Generator: Adobe Illustrator 19.2.1, SVG Export Plug-In . SVG Version: 6.00 Build 0)  -->
<svg version="1.1" id="Capa_1" xmlns="http://www.w3.org/2000/svg" xmlns:xlink="http://www.w3.org/1999/xlink" x="0px" y="0px"
	 viewBox="0 0 508 508" style="enable-background:new 0 0 508 508;" xml:space="preserve">
<style type="text/css">
	.st0{fill:#E4E4E4;}
	.st1{fill:#B66629;stroke:#999999;stroke-width:3;stroke-miterlimit:10;}
</style>
<g>
	<path class="st0" d="M105,313.8L41.9,423.2l73.7-3.9L149,485l58.4-101.2C165.6,373,129.7,347.8,105,313.8z"/>
	<path class="st0" d="M402.6,313.2c-24.5,34.1-60.4,59.4-102.1,70.4L359,485l33.5-65.8l73.7,3.9L402.6,313.2z"/>
</g>
<path class="st1" d="M253.6,23C152.3,23,70.2,105.1,70.2,206.4s82.1,183.4,183.4,183.4s183.4-82.1,183.4-183.4S354.9,23,253.6,23z
	 M253.6,360.8c-85.3,0-154.4-69.1-154.4-154.4S168.4,52.1,253.6,52.1S408,121.2,408,206.4S338.9,360.8,253.6,360.8z"/>
<path class="st0" d="M344.8,192.1c4.1-4,1.8-11-3.8-11.8l-52.5-7.6c-2.3-0.4-4.2-1.7-5.2-3.8l-23.6-47.6c-2.5-5.2-9.9-5.2-12.5,0
	l-23.4,47.6c-1,2-3,3.5-5.2,3.8l-52.5,7.6c-5.6,0.8-7.9,7.8-3.8,11.8l37.9,37c1.6,1.6,2.4,3.9,2,6.1l-8.9,52.2c-1,5.6,5,10,10.1,7.3
	l46.9-24.6c2-1.1,4.5-1.1,6.5,0l46.9,24.6c5.1,2.6,11-1.6,10.1-7.3l-9-52.2c-0.4-2.3,0.4-4.5,2-6.1L344.8,192.1z"/>
</svg>
