<?xml version="1.0" encoding="utf-8"?>
<!-- Generator: Adobe Illustrator 23.1.0, SVG Export Plug-In . SVG Version: 6.00 Build 0)  -->
<svg version="1.1" id="Layer_1" xmlns="http://www.w3.org/2000/svg" xmlns:xlink="http://www.w3.org/1999/xlink" x="0px" y="0px"
	 viewBox="0 0 2500 2500" style="enable-background:new 0 0 2500 2500;" xml:space="preserve">
<style type="text/css">
	.st0{fill:#B66629;}
	.st1{fill:#E4E4E4;}
	.st2{fill:#E4E4E4;stroke:#565555;stroke-miterlimit:10;}
	.st3{fill:#E4E4E4;stroke:#555555;stroke-miterlimit:10;}
</style>
<g>
	<path class="st0" d="M1778.5,793.3c-0.3-19.1-3.6-38.1-9.8-52.7l-50.8-117.5c-6.3-14.6-17.9-29.9-31.6-43.2
		c-13.6-13.3-29.4-24.3-44.2-30.1l-427.4-168.4c-14.8-5.8-33.8-8.4-52.9-8c-19,0.3-38,3.7-52.6,10l-117.3,51.3
		c-14.6,6.4-29.9,18.1-43.1,31.8c-13.2,13.7-24.3,29.5-30.1,44.3l-47.1,119.8L387.1,1860.3L339.8,1980c-5.8,14.8-8.5,33.9-8.3,52.9
		c0.3,19.1,3.6,38.1,9.8,52.7l50.7,117.5c6.3,14.6,17.9,30,31.6,43.2c13.6,13.3,29.4,24.3,44.2,30.3L895.2,2445
		c14.8,5.8,33.8,8.4,52.9,8c19-0.3,38-3.7,52.6-10l117.3-51.3c14.6-6.4,29.9-18.1,43.1-31.8s24.3-29.5,30.1-44.3l47.2-119.8
		L1723,966.1l47.2-119.8C1776,831.4,1778.7,812.3,1778.5,793.3z M1327.6,563.4c14.7-6.4,31.8-7.1,47.9-0.9
		c16.1,6.4,28.1,18.6,34.5,33.4c6.4,14.7,7.1,31.8,0.8,47.9c-6.4,16.1-18.5,28.1-33.3,34.5c-14.7,6.4-31.8,7.1-48,0.9
		c-16.1-6.4-28-18.6-34.5-33.3s-7.3-31.8-0.9-47.9C1300.6,581.7,1312.9,569.8,1327.6,563.4z"/>
	<path class="st1" d="M642.3,1273.4l-6.7-2.7l10-25.5l6.7,2.7L642.3,1273.4z M1455.4,1583.9l-6.8-2.7l10-25.3l6.8,2.7L1455.4,1583.9
		z M662.3,1222.6l-6.7-2.7l10-25.5l6.7,2.7L662.3,1222.6z M1475.4,1533.3l-6.8-2.7l10-25.5l6.8,2.7L1475.4,1533.3z M682.3,1171.8
		l-6.7-2.7l10-25.5l6.7,2.7L682.3,1171.8z M1495.4,1482.4l-6.8-2.7l10-25.5l6.8,2.7L1495.4,1482.4z M702.3,1121l-6.7-2.7l10-25.5
		l6.7,2.7L702.3,1121z M1515.4,1431.6l-6.8-2.7l10-25.5l6.8,2.7L1515.4,1431.6z M722.3,1070.2l-6.7-2.7l10-25.5l6.7,2.7
		L722.3,1070.2z M1535.5,1380.8l-6.8-2.7l10-25.5l6.8,2.7L1535.5,1380.8z M742.4,1019.5l-6.7-2.7l10-25.3l6.7,2.7L742.4,1019.5z
		 M1555.4,1330l-6.8-2.7l10-25.5l6.8,2.7L1555.4,1330z M762.4,968.7l-6.7-2.7l10-25.5l6.7,2.7L762.4,968.7z M1575.4,1279.2l-6.8-2.7
		l10-25.3l6.8,2.7L1575.4,1279.2z M782.3,917.9l-6.7-2.7l10-25.3l6.7,2.7L782.3,917.9z M1595.4,1228.4l-6.8-2.7l10-25.5l6.8,2.7
		L1595.4,1228.4z M802.4,867.1l-6.7-2.7l10-25.5l6.7,2.7L802.4,867.1z M1615.5,1177.6l-6.8-2.7l10-25.3l6.8,2.7L1615.5,1177.6z
		 M822.4,816.3l-6.7-2.7l10-25.5l6.7,2.7L822.4,816.3z M1635.5,1126.8l-6.8-2.7l10-25.5l6.8,2.7L1635.5,1126.8z M842.4,765.5
		l-6.7-2.7l10-25.5l6.7,2.7L842.4,765.5z M1655.5,1076.1l-6.8-2.7l10-25.5l6.8,2.7L1655.5,1076.1z M862.4,714.7l-6.7-2.7l10-25.5
		l6.7,2.7L862.4,714.7z M1675.6,1025.3l-6.8-2.7l10-25.5l6.8,2.7L1675.6,1025.3z M882.5,663.9l-6.7-2.7l10-25.3l6.8,2.7L882.5,663.9
		z M1695.5,974.5l-6.8-2.7l10-25.5l6.8,2.7L1695.5,974.5z M902.4,613.1l-6.8-2.7l10-25.5l6.8,2.7L902.4,613.1z M1715.5,923.7
		l-6.8-2.7l10-25.3l6.8,2.7L1715.5,923.7z M922.4,562.4l-6.8-2.7l10-25.3l6.8,2.7L922.4,562.4z M1735.5,872.9l-6.8-2.7l8.9-22.7
		c0.3-0.9,0.7-1.8,1-2.7l6.9,2.3c-0.3,1-0.8,2-1.1,3L1735.5,872.9z M944.5,513.5l-5.9-4.1c4.5-6.5,9.7-12.8,15.6-18.9l2.3-2.5
		l5.1,5.1l-2.3,2.3C953.8,501.3,948.8,507.3,944.5,513.5z M1743.6,819.1c0.3-4.7,0.6-9.5,0.4-14.5c-0.1-4.1-0.3-8.1-0.7-12.2
		l7.3-0.7c0.4,4.1,0.7,8.4,0.7,12.7c0.1,5.2-0.1,10.3-0.4,15.2L1743.6,819.1z M982.1,476.2l-4-6c4.6-3.1,9-5.6,13.2-7.4l11.7-5.1
		l2.9,6.7l-11.7,5.1C990.4,471,986.4,473.3,982.1,476.2z M1738.2,766.6c-0.6-1.7-1.2-3.2-1.9-4.8l-8.7-20.1l6.7-2.9l8.7,20.1
		c0.7,1.7,1.3,3.3,2,5.2L1738.2,766.6z M1030.9,453.4l-2.9-6.7l25-10.9l2.9,6.7L1030.9,453.4z M1716.9,716.6l-10.8-25.1l6.7-2.9
		l10.8,25.1L1716.9,716.6z M1080.9,431.4l-2.9-6.7l25-10.9l2.9,6.7L1080.9,431.4z M1695.3,666.5l-9.6-22.3c-0.3-0.9-0.8-1.8-1.2-2.6
		l6.5-3.1c0.4,1,0.9,2,1.3,2.9l9.6,22.2L1695.3,666.5z M1131.1,412.4l-1.3-7.1c7.7-1.5,15.9-2.2,24.2-2.3h3.6v7.3h-3.5
		C1146.1,410.3,1138.4,411.1,1131.1,412.4z M1669.8,619.8c-3.1-3.7-6.5-7.1-9.8-10.5c-3-2.9-6-5.7-9.2-8.3l4.6-5.6
		c3.2,2.7,6.5,5.6,9.7,8.6c3.6,3.5,6.9,7.1,10.3,10.9L1669.8,619.8z M1184,412.7l1.5-7.1c5.2,1.1,10,2.5,14.3,4.1l12.2,4.8l-2.7,6.7
		l-12.2-4.8C1193.2,415,1188.9,413.7,1184,412.7z M1628.7,586.7c-1.5-0.7-2.9-1.3-4.4-1.9l-20.8-8.1l2.7-6.7l20.8,8.1
		c1.6,0.7,3.2,1.3,4.9,2.1L1628.7,586.7z M1457.2,518.9l-25.5-10l2.7-6.7l25.5,10L1457.2,518.9z M1517.1,542.5l-25.5-10l2.7-6.7
		l25.5,10L1517.1,542.5z M1565.7,561.7l-25.5-10l2.7-6.7l25.5,10L1565.7,561.7z M1406.4,499l-25.3-10l2.7-6.7l25.3,10L1406.4,499z
		 M1355.6,478.9l-25.5-10l2.7-6.7l25.5,10L1355.6,478.9z M1306.3,459.6l-25.5-10l2.7-6.7l25.5,10L1306.3,459.6z M1258.6,440.7
		l-25.5-10l2.7-6.7l25.5,10L1258.6,440.7z"/>
	<path class="st1" d="M1439.8,1613.8l6.8,2.7l-10,25.5l-6.8-2.7L1439.8,1613.8z M626.7,1303.3l6.7,2.7l-10,25.5l-6.7-2.7
		L626.7,1303.3z M1419.8,1664.6l6.8,2.7l-10,25.5l-6.8-2.7L1419.8,1664.6z M606.7,1354.1l6.7,2.7l-10,25.5l-6.7-2.7L606.7,1354.1z
		 M1399.8,1715.4l6.8,2.7l-10,25.5l-6.8-2.7L1399.8,1715.4z M586.6,1404.9l6.7,2.7l-10,25.5l-6.7-2.7L586.6,1404.9z M1379.7,1766.2
		l6.8,2.7l-10,25.5l-6.8-2.7L1379.7,1766.2z M566.6,1455.7l6.7,2.7l-10,25.5l-6.7-2.7L566.6,1455.7z M1359.7,1817l6.8,2.7l-10,25.3
		l-6.8-2.7L1359.7,1817z M546.6,1506.4l6.7,2.7l-10,25.5l-6.7-2.7L546.6,1506.4z M1339.7,1867.8l6.8,2.7l-10,25.5l-6.8-2.7
		L1339.7,1867.8z M526.7,1557.2l6.7,2.7l-10,25.3l-6.7-2.7L526.7,1557.2z M1319.6,1918.6l6.8,2.7l-10,25.3l-6.8-2.7L1319.6,1918.6z
		 M506.6,1608l6.7,2.7l-10,25.5l-6.7-2.7L506.6,1608z M1299.7,1969.4l6.8,2.7l-10,25.5l-6.8-2.7L1299.7,1969.4z M486.6,1658.8
		l6.7,2.7l-10,25.3l-6.7-2.7L486.6,1658.8z M1279.7,2020.1l6.8,2.7l-10,25.5l-6.8-2.7L1279.7,2020.1z M466.6,1709.6l6.7,2.7
		l-10,25.5l-6.7-2.7L466.6,1709.6z M1259.7,2070.9l6.8,2.7l-10,25.5l-6.8-2.7L1259.7,2070.9z M446.5,1760.4l6.7,2.7l-10,25.5
		l-6.7-2.7L446.5,1760.4z M1239.6,2121.7l6.8,2.7l-10,25.5l-6.8-2.7L1239.6,2121.7z M426.5,1811.2l6.7,2.7l-10,25.5l-6.7-2.7
		L426.5,1811.2z M1219.6,2172.5l6.8,2.7l-10,25.3l-6.8-2.7L1219.6,2172.5z M406.6,1862l6.7,2.7l-10,25.5l-6.7-2.7L406.6,1862z
		 M1199.6,2223.3l6.8,2.7l-10,25.5l-6.8-2.7L1199.6,2223.3z M386.6,1912.8l6.7,2.7l-10,25.3l-6.7-2.7L386.6,1912.8z M1179.6,2274.1
		l6.8,2.7l-10,25.3l-6.8-2.7L1179.6,2274.1z M366.5,1963.5l6.7,2.7l-8.9,22.7c-0.3,0.9-0.7,1.8-1,2.7l-6.9-2.3c0.3-1,0.8-2,1.1-3
		L366.5,1963.5z M1157.6,2323l5.9,4.1c-4.5,6.5-9.7,12.8-15.6,18.9l-2.3,2.5l-5.1-5.1l2.3-2.3
		C1148.3,2335.3,1153.3,2329.1,1157.6,2323z M358.4,2017.4c-0.3,4.7-0.6,9.5-0.4,14.5c0.1,4.1,0.3,8.1,0.7,12.2l-7.3,0.7
		c-0.4-4.1-0.7-8.4-0.7-12.7c-0.1-5.2,0.1-10.3,0.6-15.2L358.4,2017.4z M1119.9,2360.3l4,6c-4.6,3.1-9,5.6-13.2,7.4l-11.7,5.1
		l-2.9-6.7l11.7-5.1C1111.7,2365.4,1115.7,2363.2,1119.9,2360.3z M363.8,2069.8c0.6,1.7,1.2,3.2,1.9,4.8l8.7,20.1l-6.7,2.9
		l-8.7-20.2c-0.7-1.7-1.3-3.3-2-5.2L363.8,2069.8z M1071.2,2383.1l2.9,6.7l-25,10.9l-2.9-6.7L1071.2,2383.1z M385.2,2119.8
		l10.8,25.1l-6.7,2.9l-10.8-25.1L385.2,2119.8z M1021.2,2405l2.9,6.7l-25,10.9l-2.9-6.7L1021.2,2405z M406.8,2169.9l9.6,22.2
		c0.3,0.9,0.8,1.8,1.2,2.7l-6.5,3.2c-0.4-1-0.9-2-1.3-2.9l-9.6-22.2L406.8,2169.9z M971,2424.1l1.3,7.1c-7.7,1.5-15.9,2.2-24.2,2.3
		h-3.6v-7.3h3.5C956,2426.1,963.7,2425.4,971,2424.1z M432.3,2216.6c3.1,3.7,6.5,7.1,9.8,10.5c3,2.9,6,5.7,9.2,8.3l-4.6,5.6
		c-3.2-2.7-6.5-5.6-9.7-8.6c-3.6-3.5-6.9-7.1-10.3-10.9L432.3,2216.6z M918.1,2423.8l-1.5,7.1c-5.2-1.1-10-2.5-14.3-4.1l-12.2-4.8
		l2.7-6.8l12.2,4.8C908.9,2421.5,913.2,2422.8,918.1,2423.8z M473.4,2249.8c1.5,0.7,2.9,1.3,4.4,1.9l20.8,8.1l-2.7,6.8l-20.8-8.1
		c-1.6-0.7-3.2-1.3-4.9-2.1L473.4,2249.8z M644.9,2317.5l25.5,10l-2.7,6.8l-25.5-10L644.9,2317.5z M585,2294l25.5,10l-2.7,6.8
		l-25.5-10L585,2294z M536.4,2274.8l25.5,10l-2.7,6.8l-25.5-10L536.4,2274.8z M695.7,2337.5l25.3,10l-2.7,6.8l-25.3-10L695.7,2337.5
		z M746.5,2357.6l25.5,10l-2.7,6.8l-25.5-10L746.5,2357.6z M795.7,2376.9l25.5,10l-2.7,6.8l-25.5-10L795.7,2376.9z M843.5,2395.8
		l25.5,10l-2.7,6.8l-25.5-10L843.5,2395.8z"/>
	<g>
		<path class="st1" d="M1319.9,703.4l2.2-6.9l0.4,0.1c7.9,3.1,16.1,5,24.4,5.5l-0.4,7.3C1337.4,708.8,1328.5,706.8,1319.9,703.4z
			 M1295.6,689.1c-7.1-5.9-13.3-12.9-18.2-20.9l6.1-3.9c4.6,7.3,10.2,13.7,16.7,19.2L1295.6,689.1z M1374.1,706.9l-1.8-7
			c4.2-1.1,8.5-2.6,12.6-4.4c3.7-1.6,7.4-3.6,10.8-5.7l3.9,6.1c-3.7,2.3-7.7,4.5-11.7,6.1C1383.3,704.2,1378.7,705.8,1374.1,706.9z
			 M1266.5,642.8c-2.3-9-3.2-18.3-2.6-27.6l7.3,0.4c-0.6,8.5,0.2,17.1,2.3,25.3L1266.5,642.8z M1420.4,677.9l-5.6-4.7
			c5.5-6.5,9.8-13.8,13.1-21.9l6.7,2.7C1431.1,662.8,1426.3,670.7,1420.4,677.9z M1276.8,590.9l-6.8-2.7c3.5-8.7,8.1-16.7,14.1-23.9
			l5.6,4.7C1284.2,575.5,1279.9,582.9,1276.8,590.9z M1433.7,626.6c0.7-8.5-0.1-17.1-2.2-25.3l7-1.8c2.2,9,3.1,18.3,2.5,27.6
			L1433.7,626.6z M1308.8,552.2l-3.9-6.1c3.8-2.5,7.9-4.6,12.2-6.5c4.4-1.9,8.7-3.5,13.3-4.6l1.8,7c-4.1,1.1-8.1,2.5-12.2,4.2
			C1316.1,548.1,1312.3,550,1308.8,552.2z M1421.4,577.9c-4.5-7.3-10.2-13.7-16.6-19.2l4.7-5.6c7.1,5.9,13.2,13.1,18.2,21
			L1421.4,577.9z M1357.4,539.6l0.4-7.3c9.3,0.6,18.3,2.6,27,6l-1.8,7l-0.9-0.3C1374.2,542,1365.8,540.1,1357.4,539.6z"/>
	</g>
	<g>
		<path class="st2" d="M1353.1,468c-0.2,0.6-0.3,1.2-0.4,1.8C1353.7,466.5,1354.2,465.3,1353.1,468z"/>
		<path class="st2" d="M1600.8-194.2l-10.9-5.5c-43.2,86.7-167.1,677.3-241.4,785.2c-2.6,3.7-4.4,5.4-5.4,6.1
			c-2.7-5.1-2.7-23.6,0.7-32.5c-4.6,0.8-9.2,1.9-13.5,3.8c-2.7,14.5-1.9,34.3,6.6,39.8c0.7,0.4,1.3,0.8,2.1,1.1
			c4.6,1.8,11.3,0.7,19.6-11.3C1430.3,488.3,1551.3-94.8,1600.8-194.2z"/>
		<path class="st2" d="M1748.2,0.2c-162.9,190.2-358.8,467.7-377.8,597.2c-2,14.4,2,19.8,6.7,21.5c0.8,0.3,1.6,0.6,2.3,0.7
			c10.2,1.7,24.6-12.7,32.4-25.3c-2-4.2-4.6-8.3-7.5-12.1c-3.2,8.8-16.3,23.1-22,25c-0.2-1.2-0.4-3.6,0.2-8.1
			c9.3-63,68.4-174.8,137.1-276.7c101-150,202.4-267.4,239.8-315.7L1748.2,0.2z"/>
	</g>
	<path class="st3" d="M1397.5,453c5.2-0.8,11.8-0.9,18.6,1c8,2.2,14.4,7,19.3,13.8l16.5,6.5l0.8-0.3c-8.8-22.7-24.9-30.3-36.9-32.8
		c-15-3.1-29.7,0.7-35.2,5L1397.5,453z"/>
	<path class="st1" d="M1176.6,1537.6c-5.1-1.7-11.5-4.1-19.1-7.1l-22.8-9.2l50.2-124.7l-32-12.9l-50.2,124.8l-55.9-22.4l26.3-65.4
		c14.9-37.3,21.4-66.4,19.2-87.5c-2.2-21-11.8-42-28.7-62.9c-14.1-17.4-33.6-31-58.6-41.1c-29.3-11.7-56.1-14.7-80.4-9.1
		c-24.3,5.6-44.5,17-60.4,34.2c-13.1,13.6-28.3,41.9-45.5,84.7l-38.7,96.4l63.5,25.5c1.1,0.5,2.4,0.9,3.6,1.4l147.8,59.4l-36.4,90.6
		l32,12.9l36.4-90.6l56.2,22.6l-36.4,90.6l32,12.9l36.4-90.6l27,10.8c3.2,1.3,6.2,2.5,8.9,3.8l60.2,24.2l19.8-49.3L1176.6,1537.6z
		 M833.2,1400.3l18-44.9c12-29.7,21.8-49.1,29.4-57.9c11-12.6,25.6-20.3,43.5-23c17.9-2.7,37.8,0.3,59.4,9
		c19.8,8,35.6,18.6,47.4,31.8c11.8,13.3,18.4,26.7,19.9,40.3c1.5,13.6-3.4,34.3-14.6,62.2l-22.2,55.1L833.2,1400.3z"/>
</g>
</svg>
