<?xml version="1.0" encoding="utf-8"?>
<!-- Generator: Adobe Illustrator 23.1.0, SVG Export Plug-In . SVG Version: 6.00 Build 0)  -->
<svg version="1.1" id="图层_1" xmlns="http://www.w3.org/2000/svg" xmlns:xlink="http://www.w3.org/1999/xlink" x="0px" y="0px"
	 viewBox="0 0 2500 2500" style="enable-background:new 0 0 2500 2500;" xml:space="preserve">
<style type="text/css">
	.st0{fill:#4B7DA6;}
	.st1{fill:none;stroke:#FFFFFF;stroke-width:11.076;stroke-linecap:round;stroke-linejoin:round;stroke-miterlimit:10;}
	.st2{fill:none;stroke:#C03520;stroke-width:26;stroke-linecap:round;stroke-linejoin:round;stroke-miterlimit:10;}
	.st3{fill:none;stroke:#9AB8E1;stroke-width:8;stroke-linecap:round;stroke-linejoin:round;stroke-miterlimit:10;}
	.st4{fill:none;stroke:#4E84B0;stroke-width:19;stroke-linecap:round;stroke-linejoin:round;stroke-miterlimit:10;}
	.st5{fill:none;stroke:#6DB0BE;stroke-width:17;stroke-linecap:round;stroke-linejoin:round;stroke-miterlimit:10;}
	.st6{fill:none;stroke:#BF2F86;stroke-width:11;stroke-linecap:round;stroke-linejoin:round;stroke-miterlimit:10;}
	.st7{fill:none;stroke:#83A03B;stroke-width:13;stroke-linecap:round;stroke-linejoin:round;stroke-miterlimit:10;}
	.st8{fill:none;stroke:#3F2480;stroke-width:19;stroke-linecap:round;stroke-linejoin:round;stroke-miterlimit:10;}
	.st9{fill:none;stroke:#C89A2E;stroke-width:8;stroke-linecap:round;stroke-linejoin:round;stroke-miterlimit:10;}
	.st10{fill:none;stroke:#4665A3;stroke-width:8;stroke-linecap:round;stroke-linejoin:round;stroke-miterlimit:10;}
	.st11{fill:none;stroke:#CE8B34;stroke-width:8;stroke-linecap:round;stroke-linejoin:round;stroke-miterlimit:10;}
	.st12{fill:#BE221C;}
	.st13{opacity:0.3;}
	.st14{fill:#96B1D8;}
	.st15{fill:none;stroke:#FFFFFF;stroke-width:5.3231;stroke-linecap:round;stroke-linejoin:round;stroke-miterlimit:10;}
	.st16{fill:none;stroke:#FFFFFF;stroke-width:3.5143;stroke-linecap:round;stroke-linejoin:round;stroke-miterlimit:10;}
	.st17{fill:#7F9A3C;}
	.st18{fill:#67A7B3;}
	.st19{fill:#C09632;}
	.st20{fill:none;stroke:#C09632;stroke-width:11;stroke-linecap:round;stroke-linejoin:round;stroke-miterlimit:10;}
	.st21{fill:none;stroke:#C09632;stroke-width:12.8139;stroke-linecap:round;stroke-linejoin:round;stroke-miterlimit:10;}
	.st22{fill:#B1327D;}
	.st23{fill:none;stroke:#B1327D;stroke-width:7.9836;stroke-linecap:round;stroke-linejoin:round;stroke-miterlimit:10;}
	.st24{opacity:0.4;fill:#B1327D;}
	
		.st25{opacity:0.4;fill:none;stroke:#B1327D;stroke-width:3.3552;stroke-linecap:round;stroke-linejoin:round;stroke-miterlimit:10;}
	.st26{fill:#3C2975;}
	.st27{fill:#FFFFFF;}
	.st28{opacity:0.5;fill:#7F9A3C;}
	.st29{fill:#446099;}
	.st30{fill:none;stroke:#FFFFFF;stroke-width:4.9697;stroke-linecap:round;stroke-linejoin:round;stroke-miterlimit:10;}
	.st31{opacity:0.4;fill:#4B7DA6;}
	.st32{fill:#B43624;}
</style>
<g>
	<path class="st0" d="M668.44,529.25h-66.46c-8.06,0-14.65-6.59-14.65-14.65v-99.08c0-8.06,6.59-14.65,14.65-14.65H777.9
		c8.06,0,14.65,6.59,14.65,14.65"/>
	<line class="st1" x1="615.8" y1="441.84" x2="669.01" y2="441.84"/>
	<line class="st1" x1="615.8" y1="462.1" x2="669.01" y2="462.1"/>
	<line class="st1" x1="615.8" y1="489.69" x2="669.01" y2="489.69"/>
	<path class="st2" d="M1056.73,296.57c0,0,0,216.34,0,249.26c0,62.31,30.57,163.43,163.43,163.43s106.99,0,129.33,0
		s145.2,22.34,145.2,145.2s0,1188.09,0,1188.09"/>
	<path class="st3" d="M1913.51,497.75c0,0,0,562.01,0,618.44c0,91.42-60.99,144.62-144.62,144.62c-50.56,0-171.66,0-208.11,0
		c-36.45,0-142.27,48.21-142.27,142.27c0,94.06,0,789.7,0,789.7"/>
	<path class="st4" d="M1342.81,2275.34c0,0,0-725.35,0-794.13c0-68.78-54.67-160.48-160.48-160.48c-105.81,0-253.51,0-315.23,0
		c-61.72,0-146.37-44.09-146.37-146.37c0-102.29,0-576.8,0-627.36"/>
	<path class="st5" d="M2070.04,944.99c0,0,0,162.91,0,242.86s-42.33,152.85-152.85,152.85s-461.99,0-518.42,0
		c-56.43,0-104.38,29.98-104.38,104.38c0,74.4,0,923.15,0,923.15"/>
	<path class="st6" d="M520.31,937.94c0,0,0,138.74,0,185.77s42.33,131.68,178.71,131.68s452.81,4.7,523.36,4.7
		c70.54,0,154.02,77.6,154.02,154.02s0,714.26,0,714.26"/>
	<path class="st7" d="M1784.72,690.05c0,0,0,146.29,0,190.97c0,68.19-65.84,122.28-171.66,122.28
		c-105.82,0-157.96,7.05-157.96,159.9s0,849.96,0,849.96"/>
	<path class="st8" d="M1261.07,2424.67c0,0,0-1211.02,0-1302.72s-65.84-155.2-155.2-155.2s-43.07,0-80.69,0
		s-142.85-42.33-142.85-158.73s0-110.52,0-110.52"/>
	<path class="st9" d="M1570.93,458.37c0,0,0,263.07,0,294.81c0,57.88-65.25,116.39-155.19,116.39s-88.18,0-118.16,0
		c-50.77,0-138.44,49.38-138.44,138.44s0,1135.07,0,1135.07"/>
	<path class="st10" d="M1117.59,2008.51c0,0,0-745.97,0-814.75c0-68.78-13.67-141.08-100.08-141.08c-86.41,0-380.92,0-454.99,0
		c-74.07,0-166.65-44.09-166.65-166.65s0-240.72,0-240.72"/>
	<path class="st11" d="M665.35,761.38c0,0,0,384.77,0,481.76s72.3,142.85,164.01,142.85s179.44,0,237.64,0
		c58.2,0,137.56,47.62,137.56,137.56s0,691.85,0,691.85"/>
	<g>
		<path class="st12" d="M1054.71,102.81c0,0,53.39-102.62,148.04-28.05c50.48,39.77,18.77,114.08,2.9,140.23
			c-28.64,47.19-150.94,161.14-150.94,161.14s-122.3-113.95-150.94-161.14c-15.87-26.16-47.58-100.46,2.9-140.23
			C1001.32,0.19,1054.71,102.81,1054.71,102.81"/>
	</g>
	<g>
		<path class="st12" d="M415.1,1104.98c0,0,14.03-26.97,38.91-7.37c13.27,10.45,4.93,29.98,0.76,36.86
			c-7.53,12.4-39.67,42.35-39.67,42.35s-32.15-29.95-39.67-42.35c-4.17-6.87-12.51-26.4,0.76-36.86
			C401.07,1078.01,415.1,1104.98,415.1,1104.98"/>
	</g>
	<g class="st13">
		<path class="st14" d="M1877.07,812.81c0,0,5.98-11.5,16.59-3.14c5.66,4.46,2.1,12.78,0.32,15.71
			c-3.21,5.29-16.91,18.06-16.91,18.06s-13.71-12.77-16.91-18.06c-1.78-2.93-5.33-11.26,0.32-15.71
			C1871.09,801.31,1877.07,812.81,1877.07,812.81"/>
	</g>
	<circle class="st14" cx="1921.32" cy="391.62" r="116.4"/>
	<path class="st15" d="M1866.67,440.7h109.29c-7.95,22.51-29.91,37.89-54.65,37.89S1874.62,463.21,1866.67,440.7z"/>
	<path class="st15" d="M1864.5,430.14c0.7,3.38,1.38,8.12,2.17,10.56h109.29c1.02-2.95,2.08-6.22,2.17-10.56H1864.5z"/>
	<g>
		<path class="st16" d="M1864.2,357.24c0,0,9.19-17.66,25.48-4.83c8.69,6.84,3.23,19.63,0.5,24.13
			c-4.93,8.12-25.98,27.73-25.98,27.73s-21.05-19.61-25.98-27.73c-2.73-4.5-8.19-17.29,0.5-24.13
			C1855.01,339.58,1864.2,357.24,1864.2,357.24"/>
	</g>
	<g>
		<path class="st16" d="M1978.13,354.78c0,0,9.19-17.66,25.48-4.83c8.69,6.84,3.23,19.63,0.5,24.13
			c-4.93,8.12-25.98,27.73-25.98,27.73s-21.05-19.61-25.98-27.73c-2.73-4.5-8.19-17.29,0.5-24.13
			C1968.95,337.12,1978.13,354.78,1978.13,354.78"/>
	</g>
	<path class="st14" d="M362.11,848.86h-74.77c-3.42,0-6.22,2.8-6.22,6.22v42.11c0,3.42,2.8,6.22,6.22,6.22h6.13l-5.78,8.99
		l21.05-8.99h53.37c3.42,0,6.22-2.8,6.22-6.22v-42.11C368.33,851.66,365.53,848.86,362.11,848.86z"/>
	<path class="st0" d="M860.57,417.48H684.64c-8.06,0-14.65,6.59-14.65,14.65v99.08c0,8.06,6.59,14.65,14.65,14.65h14.43L685.47,567
		l49.53-21.15h125.56c8.06,0,14.65-6.59,14.65-14.65v-99.08C875.21,424.07,868.62,417.48,860.57,417.48z"/>
	<path class="st17" d="M1873.35,573.34h-167.5c-7.67,0-13.94,6.27-13.94,13.94v94.34c0,7.67,6.27,13.94,13.94,13.94h13.74
		l-12.94,20.14l47.16-20.14h119.55c7.67,0,13.94-6.27,13.94-13.94v-94.34C1887.3,579.61,1881.02,573.34,1873.35,573.34z"/>
	<polygon class="st18" points="1052.23,829.98 1063.32,852.45 1088.12,856.06 1070.17,873.55 1074.41,898.25 1052.23,886.59 
		1030.05,898.25 1034.28,873.55 1016.34,856.06 1041.14,852.45 	"/>
	<polygon class="st19" points="1570.19,243.07 1600.91,305.32 1669.6,315.3 1619.89,363.75 1631.63,432.17 1570.19,399.86 
		1508.75,432.17 1520.48,363.75 1470.78,315.3 1539.47,305.32 	"/>
	<line class="st20" x1="1570.23" y1="428.49" x2="1570.23" y2="459.84"/>
	<line class="st21" x1="1502.46" y1="370.6" x2="1470.83" y2="388.86"/>
	<line class="st21" x1="1638.49" y1="370.6" x2="1670.12" y2="388.86"/>
	<line class="st21" x1="1618.3" y1="287.74" x2="1654.31" y2="251.73"/>
	<line class="st21" x1="1486.64" y1="251.73" x2="1523.39" y2="288.48"/>
	
		<ellipse transform="matrix(0.9555 -0.295 0.295 0.9555 -251.7547 176.2303)" class="st22" cx="458.26" cy="922.59" rx="26.7" ry="15.79"/>
	
		<ellipse transform="matrix(0.9555 -0.295 0.295 0.9555 -246.4827 211.1831)" class="st22" cx="576.75" cy="922.59" rx="26.7" ry="15.79"/>
	<polyline class="st23" points="479.7,913 479.7,815.62 597.6,815.62 597.6,913 	"/>
	<line class="st23" x1="479.7" y1="840.6" x2="597.6" y2="840.6"/>
	
		<ellipse transform="matrix(0.9555 -0.295 0.295 0.9555 -216.8886 671.606)" class="st24" cx="2117.7" cy="1054.72" rx="11.22" ry="6.64"/>
	
		<ellipse transform="matrix(0.9555 -0.295 0.295 0.9555 -214.6729 686.2949)" class="st24" cx="2167.5" cy="1054.72" rx="11.22" ry="6.64"/>
	<polyline class="st25" points="2126.71,1050.69 2126.71,1009.76 2176.26,1009.76 2176.26,1050.69 	"/>
	<line class="st25" x1="2126.71" y1="1020.26" x2="2176.26" y2="1020.26"/>
	<circle class="st26" cx="885.09" cy="635.06" r="62.91"/>
	<polygon class="st27" points="866.23,675.25 923.27,635.06 866.23,594.88 	"/>
	<polygon class="st18" points="1670.57,941.55 1702.58,918.99 1670.57,896.44 	"/>
	<polygon class="st28" points="764.11,1037.26 824.34,994.83 764.11,952.39 	"/>
	
		<ellipse transform="matrix(0.7071 -0.7071 0.7071 0.7071 -282.3755 447.5586)" class="st29" cx="399.06" cy="564.64" rx="99.94" ry="99.94"/>
	<g>
		<path class="st30" d="M464.56,580.35v-31.42h-9.51c-1.26-4.5-3.04-8.78-5.29-12.77l6.73-6.73l-22.22-22.22l-6.73,6.73
			c-3.99-2.25-8.27-4.03-12.77-5.29v-9.51h-31.42v9.51c-4.5,1.26-8.78,3.04-12.77,5.29l-6.73-6.73l-22.22,22.22l6.73,6.73
			c-2.24,3.99-4.03,8.27-5.29,12.77h-9.51v31.42h9.51c1.26,4.5,3.04,8.78,5.29,12.77l-6.73,6.73l22.22,22.22l6.73-6.73
			c3.99,2.24,8.27,4.03,12.77,5.29v9.51h31.42v-9.51c4.5-1.26,8.78-3.04,12.77-5.29l6.73,6.73l22.22-22.22l-6.73-6.73
			c2.24-3.99,4.03-8.27,5.29-12.77H464.56z"/>
		<circle class="st30" cx="399.06" cy="564.64" r="34.96"/>
	</g>
	<path class="st26" d="M1926.12,1298.46v-15.34h-4.65c-0.62-2.2-1.49-4.29-2.58-6.23l3.29-3.29l-10.85-10.85l-3.29,3.29
		c-1.95-1.1-4.04-1.97-6.23-2.58v-4.65h-15.34v4.65c-2.2,0.62-4.29,1.49-6.23,2.58l-3.29-3.29l-10.85,10.85l3.29,3.29
		c-1.1,1.95-1.97,4.04-2.58,6.23h-4.65v15.34h4.65c0.62,2.2,1.49,4.29,2.58,6.23l-3.29,3.29l10.85,10.85l3.29-3.29
		c1.95,1.1,4.04,1.97,6.23,2.58v4.65h15.34v-4.65c2.2-0.62,4.29-1.49,6.23-2.58l3.29,3.29l10.85-10.85l-3.29-3.29
		c1.1-1.95,1.97-4.04,2.58-6.23H1926.12z M1894.13,1307.86c-9.43,0-17.07-7.64-17.07-17.07c0-9.43,7.64-17.07,17.07-17.07
		c9.43,0,17.07,7.64,17.07,17.07C1911.21,1300.22,1903.56,1307.86,1894.13,1307.86z"/>
	<path class="st31" d="M1084.29,1206.75v-15.34h-4.65c-0.62-2.2-1.49-4.29-2.58-6.23l3.29-3.29l-10.85-10.85l-3.29,3.29
		c-1.95-1.1-4.04-1.97-6.23-2.58v-4.65h-15.34v4.65c-2.2,0.62-4.29,1.49-6.23,2.58l-3.29-3.29l-10.85,10.85l3.29,3.29
		c-1.1,1.95-1.97,4.04-2.58,6.23h-4.65v15.34h4.65c0.62,2.2,1.49,4.29,2.58,6.23l-3.29,3.29l10.85,10.85l3.29-3.29
		c1.95,1.1,4.04,1.97,6.23,2.58v4.65h15.34v-4.65c2.2-0.62,4.29-1.49,6.23-2.58l3.29,3.29l10.85-10.85l-3.29-3.29
		c1.1-1.95,1.97-4.04,2.58-6.23H1084.29z M1052.3,1216.16c-9.43,0-17.07-7.64-17.07-17.07c0-9.43,7.64-17.07,17.07-17.07
		c9.43,0,17.07,7.64,17.07,17.07C1069.37,1208.51,1061.73,1216.16,1052.3,1216.16z"/>
	<path class="st18" d="M2143.81,641.54h-144.89c-6.72,0-12.23,5.5-12.23,12.23V936.4c0,6.72,5.5,12.23,12.23,12.23h144.89
		c6.72,0,12.23-5.5,12.23-12.23V653.77C2156.04,647.04,2150.53,641.54,2143.81,641.54z M2060.36,651.27h22.01
		c1.34,0,2.45,1.03,2.45,2.29s-1.1,2.29-2.45,2.29h-22.01c-1.34,0-2.45-1.03-2.45-2.29S2059.02,651.27,2060.36,651.27z
		 M2141.58,909.69c0,2.38-1.94,4.32-4.32,4.32h-131.79c-2.38,0-4.32-1.94-4.32-4.32v-229.1c0-2.38,1.94-4.32,4.32-4.32h131.79
		c2.38,0,4.32,1.94,4.32,4.32V909.69z"/>
	<line class="st1" x1="697.57" y1="450.87" x2="847.44" y2="450.87"/>
	<line class="st1" x1="697.57" y1="478.21" x2="847.44" y2="478.21"/>
	<line class="st1" x1="697.57" y1="505.55" x2="785.93" y2="505.55"/>
	<polygon class="st32" points="1323.43,605.79 1271.7,605.79 1271.7,592.49 1235.67,618.33 1271.7,644.17 1271.7,630.87 
		1323.43,630.87 	"/>
	<polygon class="st32" points="1289.37,666.53 1341.1,666.53 1341.1,679.83 1377.12,653.99 1341.1,628.16 1341.1,641.45 
		1289.37,641.45 	"/>
</g>
</svg>
