<?xml version="1.0" encoding="utf-8"?>
<!-- Generator: Adobe Illustrator 19.2.1, SVG Export Plug-In . SVG Version: 6.00 Build 0)  -->
<svg version="1.1" id="图层_1" xmlns="http://www.w3.org/2000/svg" xmlns:xlink="http://www.w3.org/1999/xlink" x="0px" y="0px"
	 viewBox="0 0 2500 2500" style="enable-background:new 0 0 2500 2500;" xml:space="preserve">
<style type="text/css">
	.st0{fill:none;stroke:#E4E4E4;stroke-width:6;stroke-miterlimit:10;}
	.st1{fill:none;stroke:#ADCA4F;stroke-width:3;stroke-miterlimit:10;}
	.st2{fill:none;stroke:#6BB4B7;stroke-width:3;stroke-miterlimit:10;}
	.st3{fill:#036D6D;}
	.st4{fill:#B66629;}
	.st5{opacity:0.61;fill:#FFFFFF;enable-background:new    ;}
	.st6{opacity:0.61;}
	.st7{fill:#FFFFFF;}
	.st8{fill:none;stroke:#FFFFFF;stroke-width:14;stroke-linecap:round;stroke-linejoin:round;stroke-miterlimit:10;}
	.st9{fill:none;stroke:#FFFFFF;stroke-width:5;stroke-linecap:round;stroke-linejoin:round;stroke-miterlimit:10;}
</style>
<g>
	<path class="st0" d="M1369.7,1459.9c0,0-78.6,790.3,402.7,808.9"/>
	<path class="st0" d="M1310.4,1483.5c0,0-104.5,696.8,337,855.1"/>
	<path class="st0" d="M1248.8,1498.3c0,0-146.9,717,296.3,887.4"/>
	<path class="st0" d="M984.8,1457.3c0,0,85.8,774.3-395.5,792.9"/>
	<path class="st0" d="M1044.1,1482c83.5,878.3-387.6,896.8-361.5,887.4"/>
	<path class="st0" d="M1105.6,1496.9c0,0,176.9,709.2-248.6,918.4"/>
	<g>
		<g>
			<line class="st1" x1="942.1" y1="599.4" x2="1202.6" y2="819.1"/>
			<line class="st1" x1="1202.6" y1="819.1" x2="628" y2="1153.1"/>
			<line class="st1" x1="628" y1="1153.1" x2="942.1" y2="599.4"/>
			<line class="st1" x1="942.1" y1="627.7" x2="1152.2" y2="1209.6"/>
			<line class="st1" x1="1152.2" y1="1209.6" x2="1152.2" y2="1504.2"/>
			<line class="st1" x1="1152.2" y1="1504.2" x2="1835.5" y2="1124.9"/>
			<line class="st1" x1="1835.5" y1="1124.9" x2="2129.6" y2="772.5"/>
			<line class="st1" x1="2129.6" y1="772.5" x2="1709.1" y2="599.4"/>
			<line class="st1" x1="1709.1" y1="599.4" x2="1835.5" y2="1124.9"/>
			<line class="st1" x1="1709.1" y1="599.4" x2="1901.4" y2="381"/>
			<line class="st1" x1="1901.4" y1="381" x2="942.1" y2="599.4"/>
			<line class="st1" x1="942.1" y1="627.7" x2="1709.1" y2="599.4"/>
			<line class="st1" x1="1202.6" y1="819.1" x2="1421.7" y2="533.7"/>
			<line class="st1" x1="628" y1="1153.1" x2="513.3" y2="1374.7"/>
			<line class="st1" x1="628" y1="1153.1" x2="418.4" y2="824.9"/>
			<line class="st1" x1="418.4" y1="824.9" x2="942.1" y2="599.4"/>
			<line class="st1" x1="1201.8" y1="797.7" x2="1152.2" y2="1209.6"/>
			<line class="st1" x1="1174.4" y1="1192" x2="1863.7" y2="1124.9"/>
			<line class="st1" x1="1709.1" y1="599.4" x2="1152.2" y2="1504.2"/>
			<line class="st1" x1="628" y1="1153.1" x2="1152.2" y2="1504.2"/>
			<line class="st1" x1="513.3" y1="1374.7" x2="1152.2" y2="1209.6"/>
			<line class="st1" x1="686.3" y1="375" x2="947.8" y2="604.3"/>
			<line class="st1" x1="942.1" y1="599.4" x2="1181.3" y2="243.1"/>
			<line class="st1" x1="1202.6" y1="243.1" x2="1409" y2="550.2"/>
			<line class="st1" x1="1709.1" y1="599.4" x2="1737.4" y2="171.1"/>
			<line class="st1" x1="1209" y1="802.4" x2="1709.1" y2="599.4"/>
			<line class="st1" x1="1202.6" y1="819.1" x2="1835.5" y2="1124.9"/>
			<line class="st1" x1="446.7" y1="824.9" x2="1202.6" y2="819.1"/>
		</g>
	</g>
	<g>
		<g>
			<line class="st2" x1="700.8" y1="352.8" x2="599.8" y2="686"/>
			<line class="st2" x1="599.8" y1="686" x2="942.1" y2="957.8"/>
			<line class="st2" x1="942.1" y1="957.8" x2="700.8" y2="352.8"/>
			<line class="st2" x1="942.1" y1="957.8" x2="1181.3" y2="243.1"/>
			<line class="st2" x1="1181.3" y1="243.1" x2="700.8" y2="352.8"/>
			<line class="st2" x1="1181.3" y1="243.1" x2="1418.6" y2="571.2"/>
			<line class="st2" x1="1418.6" y1="571.2" x2="942.1" y2="938.1"/>
			<line class="st2" x1="942.1" y1="957.8" x2="1500.8" y2="987.8"/>
			<line class="st2" x1="1500.8" y1="987.8" x2="1418.6" y2="571.2"/>
			<line class="st2" x1="1500.8" y1="987.8" x2="1493.9" y2="1363.4"/>
			<line class="st2" x1="1493.9" y1="1363.4" x2="942.1" y2="957.8"/>
			<line class="st2" x1="942.1" y1="938.1" x2="857" y2="1374.7"/>
			<line class="st2" x1="857" y1="1374.7" x2="1493.9" y2="1363.4"/>
			<line class="st2" x1="942.1" y1="957.8" x2="341.1" y2="1090.8"/>
			<line class="st2" x1="321.6" y1="1090.8" x2="599.8" y2="686"/>
			<line class="st2" x1="321.6" y1="1090.8" x2="857" y2="1374.7"/>
			<line class="st2" x1="700.8" y1="352.8" x2="1500.8" y2="987.8"/>
			<line class="st2" x1="1418.6" y1="571.2" x2="857" y2="1374.7"/>
			<line class="st2" x1="599.8" y1="686" x2="857" y2="1374.7"/>
			<line class="st2" x1="1181.3" y1="243.1" x2="1751.9" y2="187.9"/>
			<line class="st2" x1="1751.9" y1="187.9" x2="1418.6" y2="571.2"/>
			<line class="st2" x1="1418.6" y1="571.2" x2="1971.3" y2="595.5"/>
			<line class="st2" x1="1971.3" y1="595.5" x2="1751.9" y2="187.9"/>
			<line class="st2" x1="1971.3" y1="595.5" x2="2202.3" y2="1024.3"/>
			<line class="st2" x1="2202.3" y1="1024.3" x2="1500.8" y2="987.8"/>
			<line class="st2" x1="2202.3" y1="1024.3" x2="1968.4" y2="1374.7"/>
			<line class="st2" x1="1968.4" y1="1374.7" x2="1493.9" y2="1363.4"/>
			<line class="st2" x1="1971.3" y1="595.5" x2="1493.9" y2="1363.4"/>
			<line class="st2" x1="1500.8" y1="987.8" x2="1968.4" y2="1374.7"/>
			<line class="st2" x1="1500.8" y1="987.8" x2="1971.3" y2="595.5"/>
			<line class="st2" x1="1181.3" y1="243.1" x2="1971.3" y2="595.5"/>
			<line class="st2" x1="1751.9" y1="187.9" x2="1968.4" y2="1374.7"/>
			<line class="st2" x1="1181.3" y1="243.1" x2="1492.6" y2="1358.2"/>
			<line class="st2" x1="700.8" y1="352.8" x2="1418.6" y2="571.2"/>
			<line class="st2" x1="599.8" y1="686" x2="1181.3" y2="243.1"/>
			<line class="st2" x1="857" y1="1374.7" x2="1500.8" y2="987.8"/>
		</g>
	</g>
	<path class="st2" d="M1951.4,614.5c1-11.9,1.5-24,1.5-36.2c0-239.7-194.3-434-434-434c-146.3,0-275.6,72.4-354.3,183.2
		c-59.9-41.8-132.8-66.3-211.4-66.3C748.7,261.2,583,427,583,631.4c0,32,4.1,63.1,11.7,92.7C437.8,760.8,321,901.6,321,1069.6
		c0,195.8,158.8,354.6,354.6,354.6c71.8,0,138.6-21.3,194.5-58c75.5,84.7,185.4,138.1,307.8,138.1c126.2,0,239.1-56.7,314.7-146
		c74.6,58.2,168.4,92.9,270.3,92.9c242.7,0,439.5-196.8,439.5-439.5C2202.3,836.4,2099.8,685.1,1951.4,614.5z"/>
	<path class="st3" d="M1803,2268.8c0,17-13.7,30.7-30.7,30.7s-30.7-13.8-30.7-30.7s13.7-30.7,30.7-30.7S1803,2251.9,1803,2268.8z"/>
	<path class="st3" d="M1678.2,2330.2c0,17-13.7,30.7-30.7,30.7s-30.7-13.8-30.7-30.7s13.8-30.7,30.7-30.7
		S1678.2,2313.3,1678.2,2330.2z"/>
	<circle class="st3" cx="1553.3" cy="2385.7" r="30.7"/>
	<path class="st3" d="M887.8,2416.4c0,16.9-13.8,30.7-30.7,30.7c-17,0-30.7-13.8-30.7-30.7c0-17,13.8-30.7,30.7-30.7
		S887.8,2399.5,887.8,2416.4z"/>
	<path class="st3" d="M620,2250.2c0,17-13.8,30.7-30.7,30.7c-17,0-30.7-13.7-30.7-30.7s13.8-30.7,30.7-30.7S620,2233.3,620,2250.2z"
		/>
	<path class="st3" d="M717.6,2370.7c0,17-13.8,30.7-30.7,30.7c-17,0-30.7-13.8-30.7-30.7s13.8-30.7,30.7-30.7
		S717.6,2353.7,717.6,2370.7z"/>
	<g>
		<ellipse class="st4" cx="857.1" cy="1374.7" rx="102.2" ry="102.2"/>
		<ellipse class="st4" cx="1968.4" cy="1374.7" rx="133" ry="133"/>
		
			<ellipse transform="matrix(0.7071 -0.7071 0.7071 0.7071 174.101 906.4892)" class="st4" cx="1181.3" cy="243.1" rx="158.9" ry="158.9"/>
		<ellipse class="st4" cx="913.8" cy="957.8" rx="138.8" ry="138.8"/>
		
			<ellipse transform="matrix(0.7071 -0.7071 0.7071 0.7071 11.5907 1170.3837)" class="st4" cx="1418.6" cy="571.2" rx="134.7" ry="134.7"/>
		
			<ellipse transform="matrix(0.7071 -0.7071 0.7071 0.7071 -263.3393 1339.6189)" class="st4" cx="1485.4" cy="987.7" rx="134.7" ry="134.7"/>
		<circle class="st4" cx="418.4" cy="824.9" r="28.2"/>
		<circle class="st4" cx="2129.6" cy="772.5" r="28.2"/>
		<circle class="st4" cx="1152.2" cy="1209.6" r="28.2"/>
		<path class="st4" d="M1967.9,896.7c0,36.8-29.8,66.5-66.5,66.5s-66.5-29.8-66.5-66.5s29.8-66.5,66.5-66.5
			C1938.2,830.1,1967.9,859.9,1967.9,896.7z"/>
		<circle class="st4" cx="1901.4" cy="381" r="28.2"/>
		<circle class="st4" cx="1202.6" cy="819.1" r="28.2"/>
		<circle class="st4" cx="1709.1" cy="599.4" r="28.2"/>
		<path class="st4" d="M541.5,1374.7c0,15.6-12.6,28.2-28.2,28.2c-15.6,0-28.2-12.6-28.2-28.2s12.6-28.2,28.2-28.2
			C528.8,1346.4,541.5,1359.1,541.5,1374.7z"/>
		<path class="st4" d="M656.2,1153.1c0,15.6-12.6,28.2-28.2,28.2c-15.6,0-28.2-12.6-28.2-28.2s12.6-28.2,28.2-28.2
			C643.6,1124.9,656.2,1137.5,656.2,1153.1z"/>
		<path class="st4" d="M1863.7,1124.9c0,15.6-12.6,28.2-28.2,28.2s-28.2-12.6-28.2-28.2s12.6-28.2,28.2-28.2
			S1863.7,1109.3,1863.7,1124.9z"/>
		<path class="st4" d="M970.3,599.4c0,15.6-12.6,28.2-28.2,28.2c-15.6,0-28.2-12.6-28.2-28.2s12.6-28.2,28.2-28.2
			S970.3,583.8,970.3,599.4z"/>
		
			<ellipse transform="matrix(0.7071 -0.7071 0.7071 0.7071 -671.3944 560.6658)" class="st4" cx="341.1" cy="1090.8" rx="133" ry="133"/>
		<ellipse class="st4" cx="1485.4" cy="1374.7" rx="109.7" ry="109.7"/>
		<path class="st4" d="M2069.4,595.5c0,54.2-43.9,98.1-98.1,98.1s-98.1-43.9-98.1-98.1c0-54.2,43.9-98.1,98.1-98.1
			C2025.4,497.4,2069.4,541.3,2069.4,595.5z"/>
		<path class="st4" d="M1202.6,1504.2c0,27.8-22.5,50.3-50.3,50.3s-50.3-22.5-50.3-50.3s22.5-50.3,50.3-50.3
			S1202.6,1476.4,1202.6,1504.2z"/>
		<circle class="st4" cx="2202.3" cy="1029.6" r="133"/>
		
			<ellipse transform="matrix(0.7071 -0.7071 0.7071 0.7071 -44.238 598.879)" class="st4" cx="700.8" cy="352.8" rx="109.7" ry="109.7"/>
		<path class="st4" d="M686.3,686c0,47.8-38.7,86.5-86.5,86.5s-86.5-38.7-86.5-86.5s38.7-86.5,86.5-86.5S686.3,638.2,686.3,686z"/>
		<circle class="st4" cx="1737.4" cy="187.9" r="119"/>
	</g>
</g>
<path class="st5" d="M1972.5,663.6c-38,0-69-31-69-69s30.9-69,69-69s69,31,69,69S2010.6,663.6,1972.5,663.6z M1975.7,591.5h27.1
	c-0.3-9.4-1.7-18.5-4.3-27.1h-22.9L1975.7,591.5L1975.7,591.5z M2002.8,597.8h-27.1v27h22.9C2001.1,616.3,2002.5,607.2,2002.8,597.8
	z M2035.1,597.8h-26.2c-0.3,9.3-1.6,18.4-4,27h22.4C2031.9,616.8,2034.6,607.6,2035.1,597.8z M2023.5,631H2003
	c-2.9,8.4-6.7,16.2-11.5,23.3C2004.6,650.2,2015.8,641.9,2023.5,631z M1982.4,656.5c6-7.5,10.7-16.2,14.2-25.5h-20.9v26.2
	C1977.9,657.1,1980.2,656.9,1982.4,656.5z M1969.4,657.2V631H1947c3.4,9.2,8,17.8,13.9,25.2C1963.7,656.7,1966.5,657.1,1969.4,657.2
	z M1951.5,653.7c-4.6-6.9-8.3-14.6-11.1-22.7h-18.9C1928.9,641.3,1939.3,649.3,1951.5,653.7z M1917.7,624.9h20.9
	c-2.4-8.6-3.7-17.7-4-27h-24.7C1910.4,607.6,1913.2,616.8,1917.7,624.9z M1909.9,591.5h24.7c0.3-9.3,1.6-18.5,4-27.1h-20.9
	C1913.2,572.5,1910.4,581.7,1909.9,591.5z M1921.6,558.2h18.9c2.8-8.1,6.5-15.7,11-22.6C1939.4,540,1928.9,547.9,1921.6,558.2z
	 M1969.4,532.1c-2.9,0.2-5.7,0.5-8.5,1c-5.9,7.4-10.5,15.9-13.9,25.2h22.4V532.1z M1969.4,564.3H1945c-2.5,8.6-4,17.7-4.3,27.1h28.6
	v-27.1H1969.4z M1940.7,597.8c0.3,9.4,1.7,18.5,4.2,27h24.4v-27H1940.7z M1975.7,532.1v26.2h20.8c-3.4-9.3-8.2-18-14.1-25.5
	C1980.2,532.4,1977.9,532.2,1975.7,532.1z M1991.6,535c4.8,7.1,8.6,14.9,11.5,23.3h20.4C2015.7,547.4,2004.6,539.1,1991.6,535z
	 M2027.3,564.3h-22.4c2.4,8.7,3.8,17.8,4,27.1h26.2C2034.6,581.7,2031.8,572.5,2027.3,564.3z"/>
<path class="st5" d="M1518,981.9l51.2-33.4v84.5L1518,981.9z M1402.3,942h166.4l-83.2,54.3L1402.3,942z M1401.7,1033.2l0.1-84.8
	l51.2,33.4L1401.7,1033.2z M1485.5,1003.1L1485.5,1003.1L1485.5,1003.1L1485.5,1003.1L1485.5,1003.1l28.4-18.5l49,49h-154.8l49-49
	L1485.5,1003.1z"/>
<g class="st6">
	<path class="st7" d="M628.8,656.7c0,16-13,29-29,29s-29-13-29-29s13-29,29-29S628.8,640.7,628.8,656.7z"/>
	<path class="st7" d="M548.5,735.7c0-28.3,23-51.3,51.3-51.3s51.3,23,51.3,51.3"/>
</g>
<path class="st5" d="M974.5,909.3H856.1c-15.4,0-27.9,12.5-27.9,27.8v43.2c0,15.4,12.5,27.8,27.9,27.8h95.3l-6.1,26.4l21.2-26.5h8.1
	c15.4,0,27.9-12.5,27.9-27.8V937C1002.4,921.8,989.9,909.3,974.5,909.3z M861.5,980.9c-11.1,0-20.1-9-20.1-20.1s9-20.1,20.1-20.1
	s20.1,9,20.1,20.1S872.6,980.9,861.5,980.9z M915.3,980.9c-11.1,0-20.1-9-20.1-20.1s9-20.1,20.1-20.1s20.1,9,20.1,20.1
	C935.4,971.9,926.4,980.9,915.3,980.9z M969.1,980.9c-11.1,0-20.1-9-20.1-20.1s9-20.1,20.1-20.1s20.1,9,20.1,20.1
	C989.2,971.9,980.2,980.9,969.1,980.9z"/>
<path class="st5" d="M766.5,346c0-36.3-29.4-65.7-65.7-65.7s-65.7,29.4-65.7,65.7s29.4,65.7,65.7,65.7c3.6,0,7.2-0.3,10.6-0.9
	c8.4,4.4,30.4,15.1,46.9,14.4c0,0-11.6-14.5-19.7-25.5C755.5,387.8,766.5,368.2,766.5,346z M662.5,328.3h76.6c1.2,0,2.2,1,2.2,2.2
	s-1,2.2-2.2,2.2h-76.6c-1.2,0-2.2-1-2.2-2.2S661.3,328.3,662.5,328.3z M662.5,361.4c-1.2,0-2.2-1-2.2-2.2s1-2.2,2.2-2.2h76.6
	c1.2,0,2.2,1,2.2,2.2s-1,2.2-2.2,2.2H662.5z"/>
<path class="st5" d="M1439.8,1347.1c0,0,17.8,83.8,58.6,102.8c0,0,19.4,13.7,46.8-3.9c0,0,0.5-6.9,0-9.1s-14.3-29.9-14.3-29.9
	s-5.8-4-11.7,0s-18,9.5-26-9.1s-19.5-44.2-19.5-44.2s1-7.7,9.1-10.4s16.3-9.1,14.3-16.9s-11.4-29.4-15.6-31.2
	C1477.2,1293.3,1441.3,1292,1439.8,1347.1z"/>
<path class="st5" d="M1221.8,129H1139c-14.1,0-25.6,11.5-25.6,25.6v177.1c0,14.1,11.5,25.6,25.6,25.6h82.8
	c14.1,0,25.6-11.5,25.6-25.6V154.6C1247.4,140.5,1235.8,129,1221.8,129z M1165.5,137h29.7c0.9,0,1.7,0.8,1.7,1.7s-0.8,1.7-1.7,1.7
	h-29.7c-0.9,0-1.7-0.8-1.7-1.7S1164.5,137,1165.5,137z M1180.3,351.5c-4.8,0-8.6-3.9-8.6-8.6s3.8-8.6,8.6-8.6c4.8,0,8.6,3.9,8.6,8.6
	S1185.1,351.5,1180.3,351.5z M1229.7,327H1131V151h98.7V327z"/>
<path class="st5" d="M1925.9,855.5l-45.7,8.2l0,0V916c-1.2-1.2-3.3-1.5-5.6-1.5c-2.7,0-6,1.4-8.5,3.5c-2.6,2-4.5,4.8-4.5,7.6
	c0,1.8,0.8,3.3,2,4.3s3,1.6,4.9,1.6c3,0,6.4-1.2,8.9-3.3c2.6-2,4.5-4.8,4.5-7.9v-50.5l42.4-7.6v45.9c-1.2-1.2-3.3-1.5-5.6-1.5
	c-2.7,0-6,1.4-8.5,3.5c-2.6,2-4.5,4.8-4.5,7.6c0,1.8,0.7,3.3,2,4.3c1.2,1,3,1.6,4.9,1.6c3,0,6.4-1.2,8.9-3.3c2.6-2,4.5-4.8,4.5-7.9
	L1925.9,855.5z"/>
<g class="st6">
	<path class="st7" d="M1483.3,588.3c0.3,0,0.7,0,1,0c4.8-0.5,8.6-4.6,8.6-9.5s-3.8-9-8.6-9.5c-0.3,0-0.7,0-1,0s-0.7,0-1,0h-4.7
		c-0.3,0-0.7,0-1,0s-0.7,0-1,0h2c4.8-0.5,8.6-4.6,8.6-9.5s-3.8-9-8.6-9.5c-0.3,0-0.7,0-1,0s-0.7,0-1,0H1437l13.6-26.7
		c1.4-7.5,2.2-18.4-3.5-24.3c-7.9-8.2-17.3,12.8-19.9,17.5c-5.9,11-10.6,23.4-23.7,26.7c-3.6,0.9-7.1,1.8-10.5,3.2
		c-6.5,2.5-12.6,6.7-14.2,13.9c-2.2,10.3-1,20.9-0.8,31.3c0.1,8.4-1.3,18,4.6,24.9c5.6,6.6,14.6,8,22.6,9
		c22.3,2.5,44.6,0.1,66.9,0.5l0,0c0.2,0,0.3,0,0.5,0h-0.5c0.3,0,0.7,0,1,0s0.7,0,1,0h-0.8c0.3,0,0.6-0.1,0.8-0.2v0.2
		c4.8-0.5,8.6-4.6,8.6-9.5c0-4.2-2.7-7.7-6.4-9c0-0.2,0-0.3,0.1-0.5h1.7c0.3,0,0.7,0,1,0s0.7,0,1,0c4.8-0.5,8.6-4.6,8.6-9.5
		s-3.8-9-8.6-9.5h-1.6l0,0c0.2,0,0.4,0,0.6,0c0.3,0,0.7,0,1,0h2.2C1482.6,588.3,1482.9,588.3,1483.3,588.3z"/>
	<path class="st7" d="M1366,549h-6.6c-4.8,0-8.7,2.6-8.7,5.9v64.9c0,3.2,3.9,5.9,8.7,5.9h6.6c4.8,0,8.7-2.6,8.7-5.9v-64.9
		C1374.7,551.6,1370.8,549,1366,549z"/>
</g>
<path class="st5" d="M2061.2,1333.2c-3,3.3-16.5,3.4-16.5,3.4c6.2-3,13.2-15.5,13.2-15.5l-0.3-0.9c-5.8,4.9-17.9,6.3-25.9,6.6
	c-6-4.9-13.7-7.8-22.1-7.8c-19.3,0-35,15.7-35,35c0,2.4,0.2,4.8,0.7,7.1c-0.2,0.6-0.4,1.2-0.6,1.7c-15.8-2.4-60.9-11.4-67.8-37.2
	c0,0-13.8,10.9,4.2,40.1c0,0-4.7,2.3-12,0.9c-8.8-1.7,6.7,23.5,16.5,29.3c1.6,1,1.6,1,1.6,1s-8.6,3.4-14.4,1.2
	c-5.2-2,3.2,21,24.6,24.4c-18.1,12.9-33.8,18.7-33.8,18.7c142.2,55.3,150.7-80,150.9-85.3v-0.1v-0.1l0,0c0-0.6,0-1.1,0-1.7
	c0-0.8,0-1.5-0.1-2.3C2054.4,1344.9,2061.2,1333.2,2061.2,1333.2z"/>
<g class="st6">
	<path class="st7" d="M340.8,1160.9c0,9.4-7.6,17-17,17s-17-7.6-17-17s7.6-17,17-17C333.1,1143.9,340.8,1151.5,340.8,1160.9z"/>
	<path class="st8" d="M265.5,1082.5c16.7-11,36.8-17.4,58.3-17.4c37.5,0,70.4,19.4,89.3,48.8"/>
	<path class="st8" d="M439.5,1096.8c-24.5-38-67.2-63.2-115.8-63.2c-27.9,0-53.8,8.3-75.5,22.6"/>
	<path class="st8" d="M287.1,1115.4c10.5-6.9,23.1-11,36.6-11c23.6,0,44.3,12.2,56.2,30.7"/>
	<path class="st8" d="M413.1,1113.8c-18.9-29.3-51.8-48.8-89.3-48.8c-21.5,0-41.5,6.4-58.3,17.4"/>
	<path class="st8" d="M379.9,1135.1c-11.9-18.5-32.6-30.7-56.2-30.7c-13.5,0-26.1,4-36.6,11"/>
</g>
<g class="st6">
	<g>
		<path class="st9" d="M2249.8,960.3c6.4,6.3,11.1,14.4,13.1,23.8c3.6,16.4-1.8,32.6-12.8,43.7"/>
		<path class="st9" d="M2260.1,1037.7c14.3-14.3,21.2-35.3,16.6-56.6c-2.6-12.2-8.7-22.7-17-30.8"/>
		<path class="st9" d="M2237.5,972.8c4,3.9,7,9.1,8.3,15c2.2,10.3-1.1,20.5-8.1,27.5"/>
		<path class="st9" d="M2250.2,1027.7c11-11,16.4-27.3,12.8-43.7c-2-9.4-6.7-17.5-13.1-23.8"/>
	</g>
	<g>
		<path class="st9" d="M2168.7,960.4c-6.4,6.3-11.1,14.4-13.1,23.8c-3.6,16.4,1.8,32.6,12.8,43.7"/>
		<path class="st9" d="M2158.5,1037.8c-14.3-14.3-21.2-35.3-16.6-56.6c2.6-12.2,8.7-22.7,17-30.8"/>
		<path class="st9" d="M2181.1,972.9c-4,3.9-7,9.1-8.3,15c-2.2,10.3,1.1,20.5,8.1,27.5"/>
		<path class="st9" d="M2168.4,1027.8c-11-11-16.4-27.3-12.8-43.7c2-9.4,6.8-17.5,13.1-23.8"/>
	</g>
	<rect x="2199.6" y="994" class="st7" width="16.7" height="152.8"/>
	<path class="st7" d="M2222.4,1031.5c0,5.7-6.5,10.3-14.6,10.3l0,0c-8,0-14.6-4.6-14.6-10.3v-77.7c0-5.7,6.5-10.3,14.6-10.3l0,0
		c8,0,14.6,4.6,14.6,10.3V1031.5z"/>
</g>
<path class="st5" d="M1675.3,174.7c-0.6-23.2,12.9-22.9,29.4-26.6c4.7-23.6,36.2-42.2,65.2-29.3c18.6,8.3,22.1,22.7,27.5,44.9
	c36.2,2,36,55.2,4.6,62.4c-14.2,3.2-134.7,0.7-140.4-2.8C1641,210.9,1648.1,175.1,1675.3,174.7z"/>
<path class="st5" d="M857,1355.1c-16.7-38.9-64-29.9-64.4,15.3c-0.2,24.8,22.6,34.1,37.7,44c14.7,9.6,25.1,22.8,26.8,28.4
	c1.4-5.5,13-19,26.6-28.7c14.9-10.5,37.9-19.2,37.7-44C921.1,1324.8,872.9,1317.7,857,1355.1z"/>
</svg>
