<?xml version="1.0" encoding="utf-8"?>
<!-- Generator: Adobe Illustrator 19.2.1, SVG Export Plug-In . SVG Version: 6.00 Build 0)  -->
<svg version="1.1" id="图层_1" xmlns="http://www.w3.org/2000/svg" xmlns:xlink="http://www.w3.org/1999/xlink" x="0px" y="0px"
	 viewBox="0 0 2500 2500" style="enable-background:new 0 0 2500 2500;" xml:space="preserve">
<style type="text/css">
	.st0{fill:#B66629;}
	.st1{fill:none;stroke:#E4E4E4;stroke-width:11.076;stroke-linecap:round;stroke-linejoin:round;stroke-miterlimit:10;}
	.st2{fill:none;stroke:#E4E4E4;stroke-width:26;stroke-linecap:round;stroke-linejoin:round;stroke-miterlimit:10;}
	.st3{fill:none;stroke:#B66629;stroke-width:8;stroke-linecap:round;stroke-linejoin:round;stroke-miterlimit:10;}
	.st4{fill:none;stroke:#B66629;stroke-width:19;stroke-linecap:round;stroke-linejoin:round;stroke-miterlimit:10;}
	.st5{fill:none;stroke:#B66629;stroke-width:17;stroke-linecap:round;stroke-linejoin:round;stroke-miterlimit:10;}
	.st6{fill:none;stroke:#E4E4E4;stroke-width:13;stroke-linecap:round;stroke-linejoin:round;stroke-miterlimit:10;}
	.st7{fill:none;stroke:#E4E4E4;stroke-width:8;stroke-linecap:round;stroke-linejoin:round;stroke-miterlimit:10;}
	.st8{fill:#E4E4E4;}
	.st9{fill:none;stroke:#E4E4E4;stroke-width:5.3231;stroke-linecap:round;stroke-linejoin:round;stroke-miterlimit:10;}
	.st10{fill:none;stroke:#E4E4E4;stroke-width:3.5143;stroke-linecap:round;stroke-linejoin:round;stroke-miterlimit:10;}
	.st11{fill:none;stroke:#E4E4E4;stroke-width:11;stroke-linecap:round;stroke-linejoin:round;stroke-miterlimit:10;}
	.st12{fill:none;stroke:#E4E4E4;stroke-width:12.8139;stroke-linecap:round;stroke-linejoin:round;stroke-miterlimit:10;}
	.st13{fill:#FFFFFF;}
	.st14{fill:#E4E4E4;stroke:#FFFFFF;stroke-width:4.9697;stroke-linecap:round;stroke-linejoin:round;stroke-miterlimit:10;}
</style>
<g>
	<path class="st0" d="M668.4,529.3H602c-8.1,0-14.7-6.6-14.7-14.7v-99.1c0-8.1,6.6-14.6,14.7-14.6h175.9c8.1,0,14.7,6.6,14.7,14.6"
		/>
	<line class="st1" x1="615.8" y1="441.8" x2="669" y2="441.8"/>
	<line class="st1" x1="615.8" y1="462.1" x2="669" y2="462.1"/>
	<line class="st1" x1="615.8" y1="489.7" x2="669" y2="489.7"/>
	<path class="st2" d="M1056.7,296.6c0,0,0,216.3,0,249.3c0,62.3,30.6,163.4,163.4,163.4s107,0,129.3,0s145.2,22.3,145.2,145.2
		s0,1188.1,0,1188.1"/>
	<path class="st3" d="M1913.5,497.8c0,0,0,562,0,618.4c0,91.4-61,144.6-144.6,144.6c-50.6,0-171.7,0-208.1,0
		s-142.3,48.2-142.3,142.3c0,94.1,0,789.7,0,789.7"/>
	<path class="st4" d="M1342.8,2275.3c0,0,0-725.3,0-794.1s-54.7-160.5-160.5-160.5c-105.8,0-253.5,0-315.2,0
		s-146.4-44.1-146.4-146.4c0-102.3,0-576.8,0-627.4"/>
	<path class="st5" d="M2070,945c0,0,0,162.9,0,242.9s-42.3,152.8-152.8,152.8s-462,0-518.4,0s-104.4,30-104.4,104.4s0,923.2,0,923.2
		"/>
	<path class="st6" d="M1784.7,690c0,0,0,146.3,0,191c0,68.2-65.8,122.3-171.7,122.3c-105.8,0-158,7-158,159.9s0,850,0,850"/>
	<path class="st7" d="M1570.9,458.4c0,0,0,263.1,0,294.8c0,57.9-65.3,116.4-155.2,116.4s-88.2,0-118.2,0
		c-50.8,0-138.4,49.4-138.4,138.4s0,1135.1,0,1135.1"/>
	<path class="st7" d="M1117.6,2008.5c0,0,0-746,0-814.8s-13.7-141.1-100.1-141.1s-380.9,0-455,0S395.9,1008.6,395.9,886
		s0-240.7,0-240.7"/>
	<g>
		<path class="st8" d="M1054.7,102.8c0,0,53.4-102.6,148-28.1c50.5,39.8,18.8,114.1,2.9,140.2c-28.6,47.2-150.9,161.1-150.9,161.1
			S932.4,262.2,903.8,215c-15.9-26.2-47.6-100.5,2.9-140.2C1001.3,0.2,1054.7,102.8,1054.7,102.8"/>
	</g>
	<circle class="st0" cx="1921.3" cy="391.6" r="116.4"/>
	<path class="st9" d="M1866.7,440.7H1976c-7.9,22.5-29.9,37.9-54.7,37.9S1874.6,463.2,1866.7,440.7z"/>
	<path class="st9" d="M1864.5,430.1c0.7,3.4,1.4,8.1,2.2,10.6H1976c1-3,2.1-6.2,2.2-10.6H1864.5z"/>
	<g>
		<path class="st10" d="M1864.2,357.2c0,0,9.2-17.7,25.5-4.8c8.7,6.8,3.2,19.6,0.5,24.1c-4.9,8.1-26,27.7-26,27.7
			s-21.1-19.6-26-27.7c-2.7-4.5-8.2-17.3,0.5-24.1C1855,339.6,1864.2,357.2,1864.2,357.2"/>
	</g>
	<g>
		<path class="st10" d="M1978.1,354.8c0,0,9.2-17.7,25.5-4.8c8.7,6.8,3.2,19.6,0.5,24.1c-4.9,8.1-26,27.7-26,27.7
			s-21.1-19.6-26-27.7c-2.7-4.5-8.2-17.3,0.5-24.1C1968.9,337.1,1978.1,354.8,1978.1,354.8"/>
	</g>
	<path class="st0" d="M860.6,417.5H684.6c-8.1,0-14.7,6.6-14.7,14.6v99.1c0,8.1,6.6,14.7,14.7,14.7h14.4L685.5,567l49.5-21.2h125.6
		c8.1,0,14.7-6.6,14.7-14.7v-99.1C875.2,424.1,868.6,417.5,860.6,417.5z"/>
	<path class="st8" d="M1873.3,573.3h-167.5c-7.7,0-13.9,6.3-13.9,13.9v94.3c0,7.7,6.3,13.9,13.9,13.9h13.7l-12.9,20.1l47.2-20.1
		h119.6c7.7,0,13.9-6.3,13.9-13.9v-94.3C1887.3,579.6,1881,573.3,1873.3,573.3z"/>
	<polygon class="st8" points="1570.2,243.1 1600.9,305.3 1669.6,315.3 1619.9,363.8 1631.6,432.2 1570.2,399.9 1508.8,432.2 
		1520.5,363.8 1470.8,315.3 1539.5,305.3 	"/>
	<line class="st11" x1="1570.2" y1="428.5" x2="1570.2" y2="459.8"/>
	<line class="st12" x1="1502.5" y1="370.6" x2="1470.8" y2="388.9"/>
	<line class="st12" x1="1638.5" y1="370.6" x2="1670.1" y2="388.9"/>
	<line class="st12" x1="1618.3" y1="287.7" x2="1654.3" y2="251.7"/>
	<line class="st12" x1="1486.6" y1="251.7" x2="1523.4" y2="288.5"/>
	<polygon class="st13" points="866.2,675.3 923.3,635.1 866.2,594.9 	"/>
	
		<ellipse transform="matrix(0.7071 -0.7071 0.7071 0.7071 -282.3799 447.555)" class="st8" cx="399.1" cy="564.6" rx="99.9" ry="99.9"/>
	<g>
		<path class="st14" d="M464.6,580.3v-31.4H455c-1.3-4.5-3-8.8-5.3-12.8l6.7-6.7l-22.2-22.2l-6.7,6.7c-4-2.3-8.3-4-12.8-5.3v-9.5
			h-31.4v9.5c-4.5,1.3-8.8,3-12.8,5.3l-6.7-6.7l-22.2,22.2l6.7,6.7c-2.2,4-4,8.3-5.3,12.8h-9.5v31.4h9.5c1.3,4.5,3,8.8,5.3,12.8
			l-6.7,6.7l22.2,22.2l6.7-6.7c4,2.2,8.3,4,12.8,5.3v9.5h31.4v-9.5c4.5-1.3,8.8-3,12.8-5.3l6.7,6.7l22.2-22.2l-6.7-6.7
			c2.2-4,4-8.3,5.3-12.8H464.6z"/>
		<circle class="st14" cx="399.1" cy="564.6" r="35"/>
	</g>
	<path class="st0" d="M2143.8,641.5h-144.9c-6.7,0-12.2,5.5-12.2,12.2v282.6c0,6.7,5.5,12.2,12.2,12.2h144.9
		c6.7,0,12.2-5.5,12.2-12.2V653.8C2156,647,2150.5,641.5,2143.8,641.5z M2060.4,651.3h22c1.3,0,2.4,1,2.4,2.3s-1.1,2.3-2.4,2.3h-22
		c-1.3,0-2.4-1-2.4-2.3S2059,651.3,2060.4,651.3z M2141.6,909.7c0,2.4-1.9,4.3-4.3,4.3h-131.8c-2.4,0-4.3-1.9-4.3-4.3V680.6
		c0-2.4,1.9-4.3,4.3-4.3h131.8c2.4,0,4.3,1.9,4.3,4.3V909.7z"/>
	<line class="st1" x1="697.6" y1="450.9" x2="847.4" y2="450.9"/>
	<line class="st1" x1="697.6" y1="478.2" x2="847.4" y2="478.2"/>
	<line class="st1" x1="697.6" y1="505.5" x2="785.9" y2="505.5"/>
</g>
</svg>
