<?xml version="1.0" encoding="utf-8"?>
<!-- Generator: Adobe Illustrator 23.1.0, SVG Export Plug-In . SVG Version: 6.00 Build 0)  -->
<svg version="1.1" id="Abstract_colorful_testimonial_bubble_speech_with_commas"
	 xmlns="http://www.w3.org/2000/svg" xmlns:xlink="http://www.w3.org/1999/xlink" x="0px" y="0px" viewBox="0 0 1000 1000"
	 style="enable-background:new 0 0 1000 1000;" xml:space="preserve">
<style type="text/css">
	
		.st0{fill-rule:evenodd;clip-rule:evenodd;fill:#B66629;stroke:#1F3252;stroke-width:8;stroke-miterlimit:10;enable-background:new    ;}
	.st1{fill:#E4E4E4;}
	.st2{opacity:0.47;}
	.st3{fill:#FFFFFF;}
</style>
<path id="XMLID_1_" class="st0" d="M171,617V221.8c0-65,53.2-118.2,118.2-118.2h395.2c65,0,118.2,53.2,118.2,118.2v375.5l0,0
	c0,99.7,0,199.5,0,299.2c-22.7-102.3-90.3-161.9-227-161.2h0H289.2C224.2,735.2,171,682,171,617z"/>
<g id="XMLID_15_">
	<path id="XMLID_17_" class="st1" d="M737.2,765.5H289.2c-52.8,0-95.8-43-95.8-95.8V221.8c0-52.8,43-95.8,95.8-95.8h447.9
		c52.8,0,95.8,43,95.8,95.8v447.9C833,722.6,790,765.5,737.2,765.5z M289.2,133.9c-48.4,0-87.9,39.4-87.9,87.9v447.9
		c0,48.5,39.4,87.9,87.9,87.9h447.9c48.5,0,87.9-39.4,87.9-87.9V221.8c0-48.4-39.4-87.9-87.9-87.9L289.2,133.9L289.2,133.9z"/>
</g>
<g id="XMLID_6_" class="st2">
	<path id="XMLID_7_" class="st3" d="M314.1,208.6c-9.4,0-17.1,1.8-23.3,5.4s-10.1,9.9-11.8,18.9c-0.3,2-0.2,4.3,0.2,6.9
		c0.4,2.6,1.2,4.1,2.4,4.3l3.5-2.6c2.6-0.9,5.1-1.3,7.5-1.3c5.6,0,10.5,1.9,15,5.6c4.4,3.7,6.6,8.6,6.6,14.6
		c0,7.7-2.1,14.1-6.4,19.1c-4.2,5-10.6,7.5-19,7.5c-7.9,0-14.4-3.1-19.5-9.3c-5.1-6.2-7.7-14.4-7.7-24.5c0-34.7,17.5-52.1,52.5-52.1
		L314.1,208.6L314.1,208.6z M377,208.6c-9.4,0-17.1,1.8-23.3,5.4s-10.1,9.9-11.8,18.9c-0.3,2-0.2,4.3,0.2,6.9
		c0.4,2.6,1.2,4.1,2.4,4.3l3.5-2.6c2.6-0.9,5.1-1.3,7.5-1.3c5.6,0,10.5,1.9,15,5.6c4.4,3.7,6.6,8.6,6.6,14.6
		c0,7.7-2.1,14.1-6.4,19.1c-4.2,5-10.6,7.5-19,7.5c-7.9,0-14.4-3.1-19.5-9.3c-5.1-6.2-7.6-14.4-7.6-24.5c0-34.7,17.5-52.1,52.5-52.1
		L377,208.6L377,208.6z"/>
</g>
<g id="XMLID_5_" class="st2">
	<path id="XMLID_10_" class="st3" d="M697.7,674.7c9.4,0,17.2-1.8,23.3-5.4s10.1-9.9,11.8-18.9c0.3-2,0.2-4.3-0.2-6.9
		c-0.4-2.6-1.2-4-2.4-4.3l-3.5,2.6c-2.6,0.9-5.1,1.3-7.5,1.3c-5.6,0-10.5-1.9-15-5.6c-4.4-3.7-6.6-8.6-6.6-14.6
		c0-7.7,2.1-14.1,6.3-19.1s10.6-7.5,19-7.5c7.9,0,14.4,3.1,19.5,9.3c5.1,6.2,7.7,14.4,7.7,24.5c0,34.7-17.5,52.1-52.5,52.1
		L697.7,674.7L697.7,674.7z M634.7,674.7c9.4,0,17.2-1.8,23.3-5.4s10.1-9.9,11.8-18.9c0.3-2,0.2-4.3-0.2-6.9c-0.4-2.6-1.2-4-2.4-4.3
		l-3.5,2.6c-2.6,0.9-5.1,1.3-7.5,1.3c-5.6,0-10.5-1.9-15-5.6c-4.4-3.7-6.6-8.6-6.6-14.6c0-7.7,2.1-14.1,6.3-19.1s10.6-7.5,19-7.5
		c7.9,0,14.4,3.1,19.5,9.3c5.1,6.2,7.7,14.4,7.7,24.5c0,34.7-17.5,52.1-52.5,52.1L634.7,674.7L634.7,674.7z"/>
</g>
</svg>
