<?xml version="1.0" encoding="utf-8"?>
<!-- Generator: Adobe Illustrator 19.2.1, SVG Export Plug-In . SVG Version: 6.00 Build 0)  -->
<svg version="1.1" id="Слой_1" xmlns="http://www.w3.org/2000/svg" xmlns:xlink="http://www.w3.org/1999/xlink" x="0px" y="0px"
	 viewBox="0 0 534 534" style="enable-background:new 0 0 534 534;" xml:space="preserve">
<style type="text/css">
	.st0{fill:#B66629;}
	.st1{fill:#E4E4E4;stroke:#555555;stroke-width:4;stroke-miterlimit:10;}
</style>
<path class="st0" d="M218.1,90c-114.9,0-208,75.2-208,168c0,64.9,45.6,121.2,112.3,149.2c-5.2,25.8-21,47-33.5,60.5
	c-2.3,2.5,0.2,6.5,3.6,6.3c11.5-0.8,32.9-4.4,51-12.7c21.5-9.9,40.3-30.1,46.3-36.9c9.3,1,18.8,1.6,28.5,1.6
	c114.9,0,208-75.2,208-168C426.1,165.2,333,90,218.1,90z M218.5,412C113.3,412,28,343.5,28,259s85.3-153,190.5-153
	S409,174.5,409,259S323.7,412,218.5,412z"/>
<path class="st1" d="M301,81c-114.9,0-208,75.2-208,168c0,64.9,45.6,121.2,112.3,149.2c-5.2,25.8-21,47-33.5,60.5
	c-2.3,2.5,0.2,6.5,3.6,6.3c11.5-0.8,32.9-4.4,51-12.7c21.5-9.9,40.3-30.1,46.3-36.9c9.3,1,18.8,1.6,28.5,1.6
	c114.9,0,208-75.2,208-168C509,156.2,415.9,81,301,81z"/>
</svg>
